<svg xmlns="http://www.w3.org/2000/svg" fill="none" viewBox="0 0 24 24" id="Image--Streamline-Guidance-Free"><desc>Image Streamline Icon: https://streamlinehq.com</desc><path stroke="currentColor" d="M22.5 18.5h-0.304c-0.94 0 -1.877 -0.274 -2.564 -0.917a10.931 10.931 0 0 1 -2.061 -2.624l-0.82 -1.459h-0.5l-0.822 1.459a10.922 10.922 0 0 1 -1.75 2.32 4.604 4.604 0 0 1 -1.919 -1.062 15.292 15.292 0 0 1 -2.868 -3.674L7.75 10.5h-0.498l-1.141 2.043a15.3 15.3 0 0 1 -3.286 4.053 3.54 3.54 0 0 1 -1.325 0.722m0 5.182v-21h21v21h-21Zm15 -13a2 2 0 1 1 0 -4 2 2 0 0 1 0 4Z" stroke-width="1"></path></svg>