<svg xmlns="http://www.w3.org/2000/svg" fill="none" viewBox="0 0 24 24" id="Share--Streamline-Guidance-Free"><desc>Share Streamline Icon: https://streamlinehq.com</desc><path stroke="currentColor" d="M15.567 16.946a4 4 0 1 1 6.867 4.107 4 4 0 0 1 -6.867 -4.107Zm0 0A24.001 24.001 0 0 0 9.06 13.77l-0.41 -0.129m6.917 -6.586a4 4 0 1 1 6.867 -4.107 4 4 0 0 1 -6.867 4.107Zm0 0A24 24 0 0 1 9.06 10.23l-0.41 0.129m0 0c0.225 0.5 0.35 1.055 0.35 1.64s-0.125 1.14 -0.35 1.64m0 -3.28a4 4 0 1 0 0 3.28" stroke-width="1"></path></svg>